General
Complete name                            : /down/ZTRACENY_PRIPAD_FINAL_PRORess.mov
Format                                   : MPEG-4
Format profile                           : QuickTime
Codec ID                                 : qt  
File size                                : 11.6 GiB
Duration                                 : 57mn 30s
Overall bit rate mode                    : Variable
Overall bit rate                         : 28.8 Mbps
Encoded date                             : UTC 2014-11-19 08:34:40
Tagged date                              : UTC 2014-11-19 12:04:01
Writing library                          : Apple QuickTime
Media/UUID                               : DA570AE1-CBA0-4A48-AA52-9ABE33924996

Video
ID                                       : 1
Format                                   : ProRes
Format version                           : Version 0
Format profile                           : LT
Codec ID                                 : apcs
Duration                                 : 57mn 30s
Bit rate mode                            : Variable
Bit rate                                 : 27.3 Mbps
Width                                    : 720 pixels
Height                                   : 540 pixels
Display aspect ratio                     : 4:3
Frame rate mode                          : Constant
Frame rate                               : 25.000 fps
Color space                              : YUV
Chroma subsampling                       : 4:2:2
Scan type                                : Progressive
Bits/(Pixel*Frame)                       : 2.805
Stream size                              : 11.0 GiB (95%)
Writing library                          : Apple
Language                                 : English
Encoded date                             : UTC 2014-11-19 08:34:40
Tagged date                              : UTC 2014-11-19 12:04:01
Color primaries                          : BT.601 NTSC
Transfer characteristics                 : BT.709
Matrix coefficients                      : BT.601
matrix_coefficients_Original             : BT.601

Audio
ID                                       : 2
Format                                   : PCM
Format settings, Endianness              : Big
Format settings, Sign                    : Signed
Codec ID                                 : twos
Duration                                 : 57mn 30s
Bit rate mode                            : Constant
Bit rate                                 : 1 536 Kbps
Channel(s)                               : 2 channels
Channel positions                        : Front: L R
Sampling rate                            : 48.0 KHz
Bit depth                                : 16 bits
Stream size                              : 632 MiB (5%)
Language                                 : English
Encoded date                             : UTC 2014-11-19 08:34:40
Tagged date                              : UTC 2014-11-19 12:04:01

Other
ID                                       : 3
Type                                     : Time code
Format                                   : QuickTime TC
Duration                                 : 57mn 30s
Time code of first frame                 : 01:00:09:12
Time code settings                       : Striped
Language                                 : English
Encoded date                             : UTC 2014-11-19 12:04:01
Tagged date                              : UTC 2014-11-19 12:04:01


